<!DOCTYPE svg PUBLIC "-//W3C//DTD SVG 1.1//EN" "http://www.w3.org/Graphics/SVG/1.1/DTD/svg11.dtd">
<!-- Uploaded to: SVG Repo, www.svgrepo.com, Transformed by: SVG Repo Mixer Tools -->
<svg fill="#ffffff" width="256px" height="256px" viewBox="0 0 1024.00 1024.00" xmlns="http://www.w3.org/2000/svg" class="icon" stroke="#ffffff" stroke-width="0.01024">
<g id="SVGRepo_bgCarrier" stroke-width="0"/>
<g id="SVGRepo_tracerCarrier" stroke-linecap="round" stroke-linejoin="round" stroke="#CCCCCC" stroke-width="2.048"/>
<g id="SVGRepo_iconCarrier"> <path d="M926 164H94c-17.7 0-32 14.3-32 32v640c0 17.7 14.3 32 32 32h832c17.7 0 32-14.3 32-32V196c0-17.7-14.3-32-32-32zm-40 632H134V236h752v560zm-658.9-82.3c3.1 3.1 8.2 3.1 11.3 0l172.5-172.5 114.4 114.5c3.1 3.1 8.2 3.1 11.3 0l297-297.2c3.1-3.1 3.1-8.2 0-11.3l-36.8-36.8a8.03 8.03 0 0 0-11.3 0L531 565 416.6 450.5a8.03 8.03 0 0 0-11.3 0l-214.9 215a8.03 8.03 0 0 0 0 11.3l36.7 36.9z"/> </g>
</svg>